#!OML:ASF E:\emotionWalksFemale\Project 1\Capture day 1\Session 1\Female1.ASF
:FULLY-SPECIFIED
:DEGREES
269
root 7.89624 15.6544 14.4748 -179.025 0.872077 -179.123
lowerback 7.48483 1.16711 0.628673
upperback -4.81849 1.72792 -0.250116
thorax -9.29281 0.834242 -0.892037
lowerneck -6.98567 -2.40133 -6.50375
upperneck 9.08435 -3.25087 6.14192
head 4.05848 -1.55703 2.75676
rclavicle 3.96327e-015 5.96354e-015
rhumerus -45.0425 12.3212 -94.8347
rradius 33.9505
rwrist 18.0569
rhand -6.88981 -56.3755
rfingers 7.12502
rthumb 18.9768 -445.47
lclavicle 3.96327e-015 5.96354e-015
lhumerus -39.2472 -4.13966 87.5301
lradius 30.3703
lwrist -25.2514
lhand -3.27103 -35.3433
lfingers 7.12502
lthumb 22.4538 -6.62854
rfemur 1.25779 19.1298 27.8931
rtibia 10.6481
rfoot -11.2715 -31.2016
rtoes 0.486605
lfemur -5.01877 -22.5083 -23.2226
ltibia 21.5895
lfoot -21.4844 25.3203
ltoes -21.3575
270
root 7.89318 15.6542 14.4701 -179.058 0.859346 -179.101
lowerback 7.40948 1.20253 0.705192
upperback -4.79701 1.7821 -0.264073
thorax -9.22107 0.855802 -0.955445
lowerneck -6.96565 -2.44679 -6.46747
upperneck 9.11831 -3.3167 6.1064
head 4.06858 -1.59099 2.73601
rclavicle -3.27995e-015 6.16232e-015
rhumerus -45.3569 12.2758 -94.8428
rradius 33.6677
rwrist 18.7028
rhand -6.61753 -57.4155
rfingers 7.12502
rthumb 19.2386 -446.484
lclavicle -3.27995e-015 6.16232e-015
lhumerus -39.3691 -3.92628 87.3617
lradius 30.4213
lwrist -26.3246
lhand -2.3077 -34.6031
lfingers 7.12502
lthumb 23.3782 -6.00296
rfemur 1.38053 19.2746 27.9366
rtibia 10.5496
rfoot -11.259 -31.3313
rtoes 0.403373
lfemur -5.00151 -22.4432 -23.2277
ltibia 21.6545
lfoot -21.5785 25.2227
ltoes -21.0368
271
root 7.89138 15.6548 14.465 -179.094 0.752098 -179.07
lowerback 7.29873 1.1988 0.733784
upperback -4.7352 1.77992 -0.22284
thorax -9.08852 0.854923 -0.92286
lowerneck -7.07558 -2.46304 -6.4712
upperneck 9.25867 -3.33424 6.06002
head 4.13002 -1.60093 2.72018
rclavicle -2.52208e-015 3.97569e-016
rhumerus -45.6305 12.2588 -94.7287
rradius 33.5215
rwrist 19.517
rhand -6.01749 -58.0237
rfingers 7.12502
rthumb 19.8155 -447.034
lclavicle -2.52208e-015 3.97569e-016
lhumerus -39.4432 -3.84888 87.3535
lradius 30.6861
lwrist -26.8614
lhand -0.192141 -33.1638
lfingers 7.12502
lthumb 25.4063 -4.83673
rfemur 1.53652 19.3472 28.0088
rtibia 10.4136
rfoot -11.3473 -31.4552
rtoes 1.43798
lfemur -5.00027 -22.3374 -23.1947
ltibia 21.718
lfoot -21.6299 25.0681
ltoes -21.1793
272
root 7.89028 15.6536 14.4604 -179.139 0.539123 -179.022
lowerback 7.26143 1.15981 0.797078
upperback -4.70023 1.7358 -0.182543
thorax -9.02859 0.831031 -0.907259
lowerneck -7.18123 -2.47315 -6.54447
upperneck 9.40671 -3.34937 6.12207
head 4.1958 -1.60729 2.74944
rclavicle -2.5196e-014 1.19271e-015
rhumerus -45.9092 12.159 -94.5508
rradius 33.3672
rwrist 20.6952
rhand -5.16987 -58.3287
rfingers 7.12502
rthumb 20.6302 -447.252
lclavicle -2.5196e-014 1.19271e-015
lhumerus -39.4769 -3.94558 87.4305
lradius 30.8195
lwrist -27.0353
lhand 2.0287 -32.2089
lfingers 7.12502
lthumb 27.532 -4.20205
rfemur 1.71062 19.5157 28.137
rtibia 10.2954
rfoot -11.4527 -31.752
rtoes 3.04189
lfemur -4.98623 -22.1975 -23.1276
ltibia 21.7391
lfoot -21.4865 24.8664
ltoes -21.987
273
root 7.88946 15.6531 14.4569 -179.143 0.409789 -179.014
lowerback 7.23844 1.1429 0.855975
upperback -4.70259 1.71949 -0.189482
thorax -9.01605 0.819587 -0.944682
lowerneck -7.15349 -2.48496 -6.65813
upperneck 9.39658 -3.3743 6.29284
head 4.19428 -1.61602 2.81965
rclavicle 7.69048e-015 3.97569e-016
rhumerus -46.0346 12.0534 -94.4597
rradius 32.9274
rwrist 21.9074
rhand -4.25745 -58.3461
rfingers 7.12502
rthumb 21.5067 -447.172
lclavicle 7.69048e-015 3.97569e-016
lhumerus -39.515 -4.00499 87.4498
lradius 30.8622
lwrist -27.1533
lhand 2.82178 -32.2082
lfingers 7.12502
lthumb 28.2902 -4.32456
rfemur 1.82425 19.7492 28.2081
rtibia 10.2022
rfoot -11.4907 -32.0128
rtoes 3.74376
lfemur -4.98933 -22.1453 -23.1088
ltibia 21.74
lfoot -21.3802 24.7601
ltoes -22.485
274
root 7.8884 15.653 14.4534 -179.165 0.384373 -179.036
lowerback 7.25337 1.16349 0.871044
upperback -4.70264 1.74766 -0.204083
thorax -9.02347 0.83168 -0.973185
lowerneck -7.10245 -2.51885 -6.70007
upperneck 9.36101 -3.42516 6.36142
head 4.18015 -1.64019 2.84505
rclavicle -1.39025e-014 -4.96962e-015
rhumerus -46.0681 12.156 -94.5314
rradius 32.4059
rwrist 22.2908
rhand -3.44695 -58.0619
rfingers 7.12502
rthumb 22.285 -446.797
lclavicle -1.39025e-014 -4.96962e-015
lhumerus -39.7045 -4.18601 87.5467
lradius 31.2268
lwrist -26.7939
lhand 2.99738 -32.1215
lfingers 7.12502
lthumb 28.4581 -4.26579
rfemur 1.91564 19.8677 28.2249
rtibia 10.147
rfoot -11.3849 -32.0903
rtoes 3.71113
lfemur -4.9497 -22.1268 -23.1413
ltibia 21.7309
lfoot -21.3829 24.6923
ltoes -22.5231
275
root 7.88511 15.6504 14.4473 -179.251 0.421941 -179.102
lowerback 7.30332 1.19285 0.851014
upperback -4.68148 1.784 -0.194511
thorax -9.02998 0.850057 -0.958078
lowerneck -7.15495 -2.56867 -6.74332
upperneck 9.4406 -3.47898 6.28201
head 4.21625 -1.67128 2.82367
rclavicle -2.19781e-014 -2.08724e-015
rhumerus -46.2823 12.7217 -94.8246
rradius 32.1612
rwrist 21.9737
rhand -2.39986 -58.1131
rfingers 7.12502
rthumb 23.2898 -446.724
lclavicle -2.19781e-014 -2.08724e-015
lhumerus -40.0011 -4.50631 87.8078
lradius 31.7023
lwrist -25.851
lhand 2.97784 -31.8231
lfingers 7.12502
lthumb 28.4394 -3.96434
rfemur 2.06191 20.0374 28.204
rtibia 10.1204
rfoot -11.3157 -32.2187
rtoes 3.81072
lfemur -4.79789 -22.1757 -23.284
ltibia 21.7008
lfoot -21.3772 24.8148
ltoes -22.7272
276
root 7.88127 15.6496 14.4424 -179.288 0.466674 -179.145
lowerback 7.29034 1.21526 0.876874
upperback -4.67023 1.81794 -0.174942
thorax -9.00925 0.865712 -0.956261
lowerneck -7.16575 -2.60829 -6.79858
upperneck 9.47617 -3.51768 6.20416
head 4.23122 -1.69575 2.80605
rclavicle -1.21631e-014 -9.93923e-015
rhumerus -46.6001 13.4331 -95.2134
rradius 32.1238
rwrist 21.3619
rhand -1.54452 -58.0995
rfingers 7.12502
rthumb 24.1102 -446.605
lclavicle -1.21631e-014 -9.93923e-015
lhumerus -40.3709 -4.80626 88.1084
lradius 32.1588
lwrist -24.7927
lhand 2.42588 -31.8354
lfingers 7.12502
lthumb 27.9118 -3.88968
rfemur 2.14844 20.1953 28.1777
rtibia 10.0957
rfoot -11.2971 -32.2828
rtoes 4.27935
lfemur -4.69515 -22.2678 -23.394
ltibia 21.669
lfoot -21.4085 24.9597
ltoes -22.7224
277
root 7.87838 15.6524 14.4424 -179.217 0.486623 -179.114
lowerback 7.27981 1.23914 0.993676
upperback -4.72206 1.86736 -0.172884
thorax -9.05524 0.883468 -1.02785
lowerneck -7.10587 -2.63483 -6.79635
upperneck 9.46723 -3.55489 6.17642
head 4.22048 -1.71673 2.79532
rclavicle 1.68967e-015 -2.98177e-016
rhumerus -46.9189 13.7725 -95.4678
rradius 32.1922
rwrist 20.8476
rhand -1.00406 -57.664
rfingers 7.12502
rthumb 24.6283 -446.099
lclavicle 1.68967e-015 -2.98177e-016
lhumerus -40.7963 -5.17402 88.3883
lradius 32.693
lwrist -23.7152
lhand 1.97966 -32.0806
lfingers 7.12502
lthumb 27.4851 -4.06635
rfemur 2.08217 20.2767 28.177
rtibia 10.0707
rfoot -11.2061 -32.2537
rtoes 4.68119
lfemur -4.76107 -22.3322 -23.3482
ltibia 21.6514
lfoot -21.4589 24.9983
ltoes -22.553
278
root 7.87571 15.6534 14.4441 -179.156 0.489575 -179.098
lowerback 7.29925 1.25444 1.09072
upperback -4.77135 1.90215 -0.179833
thorax -9.11667 0.894495 -1.09658
lowerneck -7.06643 -2.66163 -6.66744
upperneck 9.45987 -3.58634 5.98902
head 4.20832 -1.73761 2.71461
rclavicle -1.52816e-015 -2.98177e-015
rhumerus -47.1183 13.7162 -95.441
rradius 32.1872
rwrist 21.196
rhand 0.0360627 -57.0919
rfingers 7.12502
rthumb 25.6249 -445.388
lclavicle -1.52816e-015 -2.98177e-015
lhumerus -41.0745 -5.50056 88.6499
lradius 33.1186
lwrist -22.5144
lhand 1.83444 -32.4035
lfingers 7.12502
lthumb 27.3462 -4.36722
rfemur 2.0188 20.3596 28.1606
rtibia 10.0384
rfoot -11.0982 -32.2777
rtoes 4.88101
lfemur -4.84081 -22.3921 -23.3168
ltibia 21.6355
lfoot -21.4502 25.0326
ltoes -22.5456
279
root 7.87291 15.6523 14.4445 -179.134 0.530563 -179.111
lowerback 7.29026 1.28026 1.13299
upperback -4.7712 1.94163 -0.180413
thorax -9.10893 0.911182 -1.1265
lowerneck -7.06674 -2.70256 -6.49723
upperneck 9.40572 -3.62595 5.7292
head 4.18706 -1.76271 2.60401
rclavicle -2.14066e-014 -6.06293e-015
rhumerus -47.2135 13.653 -95.3522
rradius 32.1862
rwrist 21.5948
rhand 0.603323 -56.3478
rfingers 7.12502
rthumb 26.1681 -444.564
lclavicle -2.14066e-014 -6.06293e-015
lhumerus -41.2812 -5.83046 88.933
lradius 33.4882
lwrist -21.3434
lhand 1.13756 -32.9463
lfingers 7.12502
lthumb 26.6795 -4.80673
rfemur 1.95284 20.2623 28.1006
rtibia 10.0667
rfoot -11.0268 -32.1448
rtoes 4.71251
lfemur -4.84941 -22.486 -23.3469
ltibia 21.5926
lfoot -21.4829 25.1099
ltoes -22.1803
280
root 7.86929 15.6526 14.4427 -179.111 0.559995 -179.153
lowerback 7.30609 1.29079 1.11502
upperback -4.7975 1.95693 -0.167502
thorax -9.14771 0.920326 -1.10615
lowerneck -7.00911 -2.72083 -6.48858
upperneck 9.32825 -3.64242 5.66187
head 4.15365 -1.77381 2.5815
rclavicle -1.28713e-014 -1.59028e-015
rhumerus -47.4412 13.7096 -95.3473
rradius 32.3788
rwrist 21.3662
rhand 0.774198 -55.8411
rfingers 7.12502
rthumb 26.3317 -444.033
lclavicle -1.28713e-014 -1.59028e-015
lhumerus -41.6615 -6.23286 89.2792
lradius 33.9642
lwrist -19.9857
lhand -0.826156 -33.8126
lfingers 7.12502
lthumb 24.7988 -5.4005
rfemur 1.85008 20.0855 28.0038
rtibia 10.1981
rfoot -11.163 -31.9654
rtoes 4.81064
lfemur -4.82454 -22.5783 -23.4185
ltibia 21.5185
lfoot -21.4708 25.2633
ltoes -22.1104
